<svg width="26" height="26" viewBox="0 0 26 26" fill="none" xmlns="http://www.w3.org/2000/svg">
<path d="M12.2339 7.90081L7.90093 12.2338C7.69855 12.4375 7.58496 12.713 7.58496 13.0001C7.58496 13.2872 7.69855 13.5627 7.90093 13.7664L12.2339 18.0993C12.4377 18.2994 12.7122 18.411 12.9978 18.4097C13.2834 18.4084 13.5569 18.2943 13.7589 18.0924C13.9608 17.8905 14.0748 17.6169 14.0761 17.3314C14.0774 17.0458 13.9659 16.7712 13.7658 16.5675L11.2818 14.0834H17.3332C17.6205 14.0834 17.8961 13.9693 18.0992 13.7661C18.3024 13.5629 18.4165 13.2874 18.4165 13.0001C18.4165 12.7127 18.3024 12.4372 18.0992 12.234C17.8961 12.0309 17.6205 11.9167 17.3332 11.9167H11.2818L13.7658 9.43264C13.9669 9.22906 14.0792 8.95422 14.0783 8.66811C14.0774 8.38201 13.9633 8.10788 13.761 7.90558C13.5587 7.70328 13.2846 7.58923 12.9985 7.58833C12.7124 7.58744 12.4375 7.69977 12.2339 7.90081Z" fill="#074A74"/>
<path d="M2.16699 12.9999C2.16699 15.1425 2.80236 17.2371 3.99274 19.0186C5.18312 20.8001 6.87506 22.1887 8.85459 23.0086C10.8341 23.8286 13.0123 24.0431 15.1138 23.6251C17.2153 23.2071 19.1456 22.1753 20.6607 20.6602C22.1757 19.1452 23.2075 17.2149 23.6255 15.1134C24.0435 13.0119 23.829 10.8337 23.009 8.85418C22.1891 6.87465 20.8005 5.18271 19.019 3.99233C17.2375 2.80195 15.143 2.16658 13.0003 2.16658C10.1281 2.16978 7.37448 3.31217 5.34353 5.34312C3.31258 7.37407 2.17019 10.1277 2.16699 12.9999ZM13.7662 7.90066C13.8669 8.00123 13.9467 8.12064 14.0011 8.25206C14.0556 8.38349 14.0836 8.52435 14.0836 8.66661C14.0836 8.80887 14.0556 8.94974 14.0011 9.08116C13.9467 9.21259 13.8669 9.332 13.7662 9.43256L11.2822 11.9166L17.3337 11.9166C17.621 11.9166 17.8965 12.0307 18.0997 12.2339C18.3029 12.437 18.417 12.7126 18.417 12.9999C18.417 13.2872 18.3029 13.5628 18.0997 13.7659C17.8965 13.9691 17.621 14.0832 17.3337 14.0832L11.2822 14.0832L13.7662 16.5673C13.9663 16.7711 14.0779 17.0456 14.0766 17.3312C14.0753 17.6168 13.9613 17.8903 13.7593 18.0923C13.5574 18.2942 13.2839 18.4082 12.9983 18.4095C12.7127 18.4108 12.4382 18.2993 12.2344 18.0992L7.9014 13.7662C7.69902 13.5625 7.58543 13.287 7.58543 12.9999C7.58543 12.7128 7.69902 12.4373 7.9014 12.2336L12.2344 7.90066C12.335 7.80005 12.4544 7.72024 12.5858 7.66579C12.7172 7.61134 12.8581 7.58331 13.0003 7.58331C13.1426 7.58331 13.2834 7.61134 13.4149 7.66579C13.5463 7.72024 13.6657 7.80005 13.7662 7.90066Z" fill="white"/>
</svg>
